<?xml version="1.0" encoding="utf-8"?>
<svg version="1.1" id="Layer_1" x="0px" y="0px" viewBox="0 0 512 512" style="enable-background:new 0 0 512 512;" xmlns="http://www.w3.org/2000/svg">
  <g>
    <g>
      <path d="M437.02,74.982C388.667,26.628,324.38,0,256,0S123.333,26.628,74.98,74.982C26.628,123.333,0,187.619,0,256 s26.628,132.667,74.98,181.019C123.333,485.372,187.62,512,256,512s132.667-26.628,181.02-74.981 C485.372,388.667,512,324.381,512,256S485.372,123.333,437.02,74.982z M256,491.602c-129.911,0-235.602-105.69-235.602-235.602 S126.089,20.398,256,20.398S491.602,126.089,491.602,256S385.911,491.602,256,491.602z" style="fill: rgb(255, 255, 255);"/>
    </g>
  </g>
  <g>
    <g>
      <path d="M450.365,178.795C428.7,124.297,384.824,81.139,329.987,60.387c-5.269-1.996-11.155,0.662-13.149,5.929 c-1.995,5.268,0.66,11.156,5.929,13.149c49.491,18.728,89.089,57.679,108.643,106.865c1.589,3.998,5.424,6.435,9.48,6.435 c1.253,0,2.528-0.234,3.766-0.724C449.89,189.959,452.447,184.03,450.365,178.795z" style="fill: rgb(255, 255, 255);"/>
    </g>
  </g>
  <g>
    <g>
      <path d="M291.371,49.898c-11.606-1.979-23.505-2.981-35.371-2.981c-5.633,0-10.199,4.567-10.199,10.199S250.367,67.315,256,67.315 c10.72,0,21.467,0.906,31.943,2.69c0.58,0.1,1.157,0.148,1.726,0.148c4.88,0,9.195-3.515,10.043-8.488 C300.657,56.112,296.923,50.844,291.371,49.898z" style="fill: rgb(255, 255, 255);"/>
    </g>
  </g>
  <g>
    <g>
      <path d="M 347.276 237.784 L 248.718 139.226 C 243.122 133.63 235.682 130.549 227.769 130.549 C 219.856 130.549 212.416 133.631 206.821 139.226 C 201.226 144.82 198.144 152.261 198.144 160.174 C 198.144 168.087 198.587 263.637 198.587 263.637 C 198.587 263.637 198.144 349.378 198.144 357.291 C 198.144 365.204 201.225 372.644 206.821 378.239 C 212.418 383.835 219.858 386.916 227.769 386.916 C 235.682 386.916 243.121 383.835 248.718 378.239 L 347.276 279.681 C 358.826 268.13 358.826 249.336 347.276 237.784 Z M 332.851 265.256 L 234.293 363.814 C 232.55 365.557 230.233 366.517 227.769 366.517 C 225.305 366.517 222.989 365.556 221.246 363.814 C 219.503 362.072 218.543 359.755 218.543 357.291 C 218.543 354.827 218.543 162.639 218.543 160.175 C 218.543 157.71 219.503 155.395 221.246 153.652 C 222.988 151.909 225.304 150.949 227.769 150.949 C 230.233 150.949 232.55 151.909 234.293 153.65 L 332.851 252.208 C 336.448 255.804 336.448 261.659 332.851 265.256 Z" style="fill: rgb(255, 255, 255);"/>
    </g>
  </g>
  <g/>
  <g/>
  <g/>
  <g/>
  <g/>
  <g/>
  <g/>
  <g/>
  <g/>
  <g/>
  <g/>
  <g/>
  <g/>
  <g/>
  <g/>
</svg>